<svg width="258" height="122" viewBox="0 0 258 122" fill="none" xmlns="http://www.w3.org/2000/svg">
<rect width="258" height="122" fill="#75B743"/>
<g clip-path="url(#clip0_404_4082)">
<path d="M217.21 66.136V62.1263C217.21 60.7906 217.134 59.8828 216.98 59.4031C216.741 58.6486 216.221 58.2714 215.418 58.2717C214.616 58.2719 214.095 58.6403 213.856 59.377C213.703 59.8563 213.626 60.7722 213.625 62.1246V66.136C213.625 67.4724 213.702 68.3806 213.856 68.8606C214.095 69.6139 214.616 69.9907 215.418 69.991C216.22 69.9912 216.741 69.6229 216.98 68.886C217.134 68.4062 217.211 67.4895 217.21 66.136ZM209.836 66.5727V61.6902C209.836 59.976 210.058 58.6394 210.503 57.6806C211.355 55.848 212.993 54.9316 215.417 54.9316C217.686 54.9316 219.266 55.7536 220.155 57.3974C220.718 58.4426 221 59.8733 221 61.6895V66.5727C221 68.2689 220.778 69.5967 220.333 70.556C219.48 72.4069 217.841 73.3322 215.418 73.3317C213.522 73.3317 212.118 72.7798 211.206 71.6761C210.293 70.5724 209.837 68.8719 209.837 66.5745" fill="white"/>
<path d="M208.24 55.7277V58.0924C208.245 58.2018 208.228 58.311 208.189 58.4136C208.154 58.4901 208.069 58.5292 207.933 58.5292C207.54 58.4437 207.135 58.3622 206.717 58.2847C206.341 58.2118 205.96 58.1732 205.578 58.1692C204.417 58.1692 203.657 58.5374 203.298 59.2738C203.076 59.7367 202.965 60.5677 202.965 61.767V66.1106C202.965 67.5842 203.157 68.5651 203.542 69.0533C203.926 69.5415 204.664 69.7855 205.757 69.7853C206.371 69.7853 206.789 69.7297 207.011 69.6186C207.233 69.5076 207.6 69.4518 208.112 69.4513C208.368 69.4513 208.496 69.6054 208.496 69.9135V72.2031C208.496 72.5969 208.287 72.8838 207.869 73.0636C207.45 73.2435 206.49 73.3336 204.988 73.3338C202.633 73.3338 201.002 72.6998 200.097 71.4317C199.483 70.5576 199.176 69.2298 199.176 67.4481V60.1481C199.176 58.6231 199.534 57.4489 200.251 56.6256C201.224 55.4963 202.871 54.9316 205.193 54.9316C206.473 54.9316 207.344 55.0172 207.805 55.1884C208.096 55.2913 208.241 55.4712 208.24 55.7281" fill="white"/>
<path d="M186.993 72.1242V69.811C186.993 69.6055 187.053 69.4646 187.172 69.3883C187.28 69.3161 187.406 69.2761 187.535 69.2731C187.697 69.2766 187.858 69.3026 188.013 69.3502C188.192 69.4013 188.325 69.4355 188.414 69.4531C188.704 69.538 189.144 69.6239 189.728 69.7095C190.313 69.7951 190.779 69.8381 191.124 69.8381C191.879 69.8381 192.477 69.6797 192.917 69.3629C193.356 69.0459 193.574 68.6133 193.574 68.0652C193.574 67.2598 193.079 66.5058 192.089 65.8034C191.372 65.3406 190.842 64.9978 190.501 64.7752C189.237 63.9362 188.375 63.2252 187.915 62.6424C187.3 61.8698 186.993 60.9098 186.993 59.7624C186.993 58.1857 187.522 56.9864 188.579 56.1645C189.636 55.3426 191.07 54.9316 192.881 54.9316C193.662 54.9313 194.442 55.0002 195.211 55.1374C196.372 55.3431 196.952 55.6428 196.952 56.0366V58.5299C196.901 58.7349 196.756 58.8381 196.517 58.8381L195.289 58.607C194.589 58.4699 194.149 58.3884 193.97 58.3625C193.79 58.3367 193.521 58.3239 193.162 58.3241C192.463 58.3241 191.955 58.4356 191.639 58.6584C191.324 58.8813 191.165 59.1553 191.165 59.4806C191.165 60.0627 192.13 60.9793 194.058 62.2302C195.185 62.984 196.005 63.6951 196.517 64.3634C197.336 65.4258 197.746 66.6767 197.746 68.116C197.746 69.7257 197.184 70.9977 196.061 71.9319C194.938 72.866 193.398 73.333 191.443 73.3328C190.721 73.3273 190 73.2803 189.283 73.1919C188.476 73.0974 187.884 72.9735 187.508 72.8195C187.282 72.7336 187.141 72.6311 187.081 72.511C187.022 72.3913 186.991 72.2593 186.992 72.1256" fill="white"/>
<path d="M174.742 72.2261V56.035C174.742 55.7269 174.776 55.5214 174.844 55.4185C174.981 55.2307 175.246 55.1367 175.638 55.1367H184.038C184.43 55.1367 184.678 55.2095 184.78 55.3551C184.882 55.5007 184.934 55.7277 184.934 56.036V57.8607C184.934 58.0485 184.87 58.1985 184.742 58.3105C184.614 58.4225 184.413 58.4783 184.14 58.4778H178.991C178.684 58.4778 178.53 58.6148 178.53 58.8889V61.5882C178.53 61.896 178.624 62.0507 178.811 62.0507H182.857C183.028 62.0507 183.169 62.0935 183.28 62.1792C183.335 62.2213 183.378 62.2759 183.407 62.3385C183.436 62.401 183.45 62.4696 183.446 62.5385V64.8771C183.446 65.2205 183.276 65.3914 182.934 65.3914H178.863C178.641 65.3914 178.53 65.5371 178.53 65.8285V69.4778C178.53 69.6831 178.623 69.7858 178.811 69.786H184.572C184.863 69.786 185.05 69.8418 185.136 69.9533C185.221 70.0643 185.263 70.2232 185.263 70.4285V72.2261C185.263 72.5344 185.229 72.7399 185.161 72.8425C185.025 73.0304 184.76 73.1243 184.368 73.1243H175.635C175.328 73.1243 175.124 73.0891 175.021 73.0211C174.834 72.8842 174.74 72.6187 174.74 72.2246" fill="white"/>
<path d="M164.633 58.8616V61.9966C164.633 62.2534 164.752 62.3819 164.991 62.3819H166.195C166.912 62.3819 167.484 62.202 167.91 61.8423C168.337 61.4825 168.551 61.0029 168.551 60.4033C168.551 59.8545 168.389 59.4091 168.064 59.0669C167.654 58.6386 167.031 58.4244 166.195 58.4244H165.069C164.778 58.4244 164.633 58.5699 164.633 58.8609M161.739 55.1348H166.477C168.646 55.1348 170.267 55.6916 171.343 56.8051C172.213 57.6963 172.648 58.8185 172.649 60.1716C172.649 61.4056 172.359 62.4337 171.778 63.2559C171.317 63.9242 170.745 64.3781 170.062 64.6176C169.909 64.6522 169.832 64.7294 169.832 64.8494C169.832 64.9518 169.875 65.0887 169.96 65.2601L173.161 72.1994C173.207 72.3141 173.233 72.4359 173.238 72.5594C173.238 72.9363 173.033 73.1242 172.623 73.123H169.96C169.585 73.123 169.321 73.046 169.167 72.892C169.115 72.8401 169.055 72.7373 168.987 72.5837L165.94 65.9016C165.82 65.6614 165.641 65.5412 165.402 65.5412H164.914C164.726 65.5412 164.633 65.6448 164.633 65.8502V72.2259C164.633 72.6197 164.561 72.868 164.415 72.9709C164.27 73.0737 164.044 73.1252 163.737 73.1252H161.739C161.432 73.1252 161.227 73.0909 161.125 73.0223C160.937 72.8854 160.844 72.6199 160.844 72.2259V56.0348C160.844 55.7267 160.878 55.5212 160.946 55.4183C161.083 55.2305 161.348 55.1365 161.74 55.1365" fill="white"/>
<path d="M149.27 72.2261V56.035C149.27 55.7269 149.304 55.5214 149.372 55.4185C149.509 55.2307 149.773 55.1367 150.166 55.1367H158.282C158.674 55.1367 158.922 55.2095 159.025 55.3551C159.127 55.5007 159.179 55.7277 159.178 56.036V58.0146C159.178 58.2025 159.114 58.3525 158.986 58.4648C158.857 58.577 158.658 58.6324 158.387 58.631H153.52C153.213 58.631 153.059 58.7673 153.059 59.0417V61.7407C153.059 62.049 153.153 62.2032 153.34 62.2032H157.387C157.558 62.2032 157.698 62.246 157.808 62.3317C157.863 62.3736 157.907 62.4282 157.936 62.4908C157.965 62.5533 157.978 62.6221 157.975 62.691V65.03C157.975 65.3728 157.804 65.544 157.463 65.5435H153.391C153.17 65.5435 153.058 65.6901 153.058 65.9807V72.2261C153.058 72.6199 152.986 72.8679 152.84 72.9711C152.695 73.0743 152.469 73.1257 152.162 73.1257H150.165C149.858 73.1257 149.652 73.0905 149.55 73.0225C149.363 72.8856 149.27 72.6201 149.27 72.2261Z" fill="white"/>
<path fill-rule="evenodd" clip-rule="evenodd" d="M48.4247 61.4306C48.4247 60.9343 48.457 60.3563 48.4146 59.8688C48.3503 59.1188 47.9685 58.7211 47.2314 58.7211C46.1704 58.7211 46.0482 59.3312 46.0381 60.5476C46.0437 60.6916 46.0472 60.8389 46.0472 60.9889V63.1704C46.0472 64.9035 45.6576 66.2304 44.6482 67.2079C43.708 68.1181 42.5192 68.5731 41.0819 68.5728C39.6279 68.5728 38.4389 68.1267 37.5148 67.2343C36.5049 66.2567 36 64.8913 36 63.138V60.9576C36 59.2238 36.5046 57.8677 37.5138 56.8891C38.4537 55.9787 39.6427 55.5238 41.0808 55.5245C42.2975 55.5245 43.3291 55.8373 44.1754 56.4629C44.2533 56.4062 44.3305 56.3509 44.4113 56.2984C45.2054 55.7818 46.1734 55.5234 47.3153 55.5234C48.8034 55.5234 49.9837 55.9353 50.856 56.7591C51.2235 57.1072 51.4964 57.5437 51.6488 58.0272C51.8264 58.5658 51.8945 59.178 51.91 59.8642C51.9233 60.4658 51.9317 61.0872 51.9149 61.6804C51.8875 62.7371 51.7654 63.6375 50.5387 64.3483C51.5278 64.8302 52.0349 65.2325 52.203 66.5566C52.5354 68.2632 52.3736 70.9326 51.2238 72.263C50.3964 73.2202 49.0861 73.7732 47.2928 73.9221C47.0096 73.9453 46.447 73.988 45.6688 73.9968C43.8044 74.0154 41.9428 73.847 40.1117 73.4941C39.8099 73.436 39.6755 73.2123 39.6755 72.953V70.817C39.6755 70.2971 40.1293 70.1713 40.5642 70.2619C40.8583 70.3228 40.8944 70.3415 41.2022 70.3894C41.9993 70.5141 43.6559 70.8205 45.1957 70.7804C46.3294 70.7508 47.3999 70.5338 48.0183 69.9174C48.3559 69.5806 48.517 69.1935 48.5216 68.5841C48.5241 68.235 48.5483 67.8712 48.5335 67.5136C48.5023 66.8035 48.3419 65.9926 47.4806 65.9926C46.9517 65.9926 46.7916 65.9602 46.7916 65.3413V63.2595C46.7916 62.7368 46.9871 62.6825 47.3883 62.6825C48.1854 62.6825 48.4184 62.1778 48.4254 61.4303M39.798 60.444V63.6558C39.798 64.4751 40.1205 65.3818 41.0812 65.3818C42.0793 65.3818 42.364 64.4991 42.364 63.6558V60.4426C42.364 59.5704 42.1243 58.7166 41.0812 58.7166C40.0679 58.7166 39.798 59.5595 39.798 60.4426" fill="white"/>
<path fill-rule="evenodd" clip-rule="evenodd" d="M98.2183 66.7319C98.3693 67.4012 98.3752 68.1998 98.2836 68.8454C98.1239 69.9631 97.5136 70.4559 96.6309 70.6472C95.3719 70.9205 94.049 70.6697 92.8494 70.2706C92.371 70.1114 92.2422 70.4365 92.2422 70.7447V72.7173C92.2422 73.1114 92.4516 73.3991 92.8704 73.5803C93.7767 73.9678 95.4572 74.0083 96.4792 73.9858C98.6855 73.9361 100.296 73.2013 101.162 71.9808C101.639 71.3094 101.859 70.4661 101.967 69.2516C102.029 68.5608 102.029 67.3374 101.94 66.64C101.745 65.1204 101.145 64.6093 100.341 64.3247C101.481 63.7501 101.723 62.5458 101.75 61.4894C101.761 60.8554 101.767 60.0255 101.725 59.3925C101.691 58.8951 101.619 58.4414 101.484 58.0289C101.332 57.5454 101.059 57.1089 100.692 56.7608C99.9689 56.0782 99.0341 55.6783 97.8874 55.5611C97.1338 55.4846 97.1759 55.765 97.1759 56.4322V58.0825C97.1759 58.6904 97.3574 58.6986 97.6526 58.8292C97.9776 58.9737 98.185 59.2692 98.224 59.7549C98.2591 60.1942 98.2899 61.023 98.2503 61.4172C98.1541 62.3683 97.8109 62.6539 96.9064 62.6814C96.8095 62.6835 96.7126 62.6835 96.6158 62.6835C96.1595 62.6835 96.0191 62.828 96.0191 63.3503V65.3423C96.0191 66.0503 96.3574 65.9936 96.7614 65.9936H97.0668C97.568 65.9971 98.0035 66.0549 98.2194 66.7309" fill="white"/>
<path fill-rule="evenodd" clip-rule="evenodd" d="M91.2786 68.0592V63.5715C91.2786 62.8994 91.1101 62.6701 90.3805 62.6701H88.3799C87.6779 62.6701 87.4821 62.8727 87.4821 63.5715V68.0352C87.4821 68.6873 87.4136 69.1766 87.2767 69.503C87.003 70.1552 86.4728 70.4813 85.6861 70.4816C85.0543 70.4816 84.5968 70.2928 84.3134 69.9152C84.03 69.5376 83.8881 68.9109 83.8877 68.0352V56.6516C83.8877 56.343 83.8534 56.1371 83.7848 56.0338C83.6482 55.8459 83.3833 55.752 82.9902 55.752H80.9896C80.5965 55.752 80.3484 55.8224 80.2459 55.9703C80.1434 56.1183 80.0918 56.3441 80.0918 56.6527V68.0602C80.0918 69.5878 80.3826 70.8237 80.9643 71.768C81.871 73.2446 83.4447 73.9829 85.6854 73.9829C87.926 73.9829 89.4997 73.2533 90.4064 71.7941C90.9902 70.8514 91.2811 69.6068 91.279 68.0602" fill="white"/>
<path fill-rule="evenodd" clip-rule="evenodd" d="M64.6166 56.6255V58.9947C64.6166 59.2025 64.4144 59.4949 64.1456 59.404C63.4341 59.1627 61.5073 58.7996 60.6628 58.7996C58.1533 58.7996 57.8844 59.7253 57.8679 62.1244C58.4081 61.8835 59.0055 61.7222 59.6632 61.7222C61.9041 61.7222 63.4778 62.4519 64.3842 63.9114C64.968 64.8538 65.2589 66.0984 65.2568 67.6452V72.899C65.2568 73.2079 65.2252 73.4161 65.1543 73.5172C65.0206 73.7074 64.7521 73.799 64.359 73.799H62.3584C61.9653 73.799 61.7173 73.7259 61.6143 73.5796C61.5115 73.4337 61.4606 73.2055 61.4606 72.8973V67.6706C61.4606 67.0193 61.3904 66.529 61.2552 66.2031C60.9819 65.5508 60.4516 65.2246 59.6642 65.2246C59.0325 65.2246 58.5749 65.4134 58.2916 65.791C58.0232 66.1501 57.8817 66.7335 57.8672 67.5413C57.8606 68.3233 57.8672 69.1074 57.8672 69.8901V72.898C57.8672 73.2069 57.8356 73.4151 57.7647 73.5162C57.631 73.7064 57.3629 73.798 56.9694 73.798H54.9688C54.5757 73.798 54.3277 73.7248 54.2247 73.5785C54.1223 73.4327 54.0703 73.2044 54.0703 72.8962V60.7782C54.0703 59.2504 54.4329 58.0768 55.1478 57.2504C56.1268 56.1197 57.7776 55.5531 60.1002 55.5508C61.3834 55.5508 63.7181 55.9168 64.1814 56.0848C64.4706 56.1905 64.6173 56.3666 64.6173 56.6255" fill="white"/>
<path fill-rule="evenodd" clip-rule="evenodd" d="M67.6068 72.9071V70.5365C67.6068 70.329 67.809 70.0367 68.0778 70.1275C68.7889 70.3685 70.7158 70.7323 71.5599 70.7323C74.1638 70.7323 74.3554 69.7358 74.3554 67.131V61.4999C74.3554 60.6245 74.2151 59.9979 73.9343 59.6203C73.6535 59.2427 73.1953 59.0537 72.5598 59.0532C71.7725 59.0532 71.2422 59.3793 70.9692 60.0314C70.833 60.3569 70.7635 60.8493 70.7635 61.4996V63.5046C70.7635 64.2024 70.521 64.3362 70.0194 64.3362H67.763C67.1481 64.3362 66.9648 64.1154 66.9648 63.5095V61.4735C66.9648 59.9285 67.2557 58.6839 67.8374 57.7397C68.7408 56.2802 70.3145 55.5505 72.5584 55.5508C74.8024 55.551 76.376 56.2894 77.2795 57.7661C77.8612 58.7101 78.152 59.946 78.152 61.4738V68.7552C78.152 70.2829 77.7895 71.4562 77.0745 72.2826C76.0964 73.4126 74.4458 73.9792 72.1225 73.9825C70.8393 73.9825 68.5042 73.6162 68.0417 73.4478C67.7521 73.3422 67.6057 73.166 67.6057 72.9071" fill="white"/>
<path fill-rule="evenodd" clip-rule="evenodd" d="M114.931 60.8114V66.1085C114.931 66.7426 114.796 66.9892 114.099 67.0089H111.886C111.189 66.9895 111.054 66.7433 111.054 66.1085V60.8114C111.054 59.029 110.327 58.7782 109.373 58.773C108.418 58.7677 107.808 59.1273 107.808 60.8371V72.9002C107.808 73.5998 107.613 73.802 106.91 73.802H104.909C104.18 73.802 104.012 73.5723 104.012 72.9002V60.8974C104.012 57.4274 105.508 55.5703 109.266 55.5703C110.52 55.5703 112.146 55.9719 112.993 56.9737C113.841 55.9719 115.467 55.5703 116.721 55.5703C120.479 55.5703 121.976 57.4274 121.976 60.8974V72.9002C121.976 73.5723 121.807 73.802 121.077 73.802H119.077C118.373 73.802 118.179 73.5998 118.179 72.9002V60.8371C118.179 59.1273 117.569 58.768 116.614 58.773C115.659 58.7779 114.932 59.029 114.932 60.8114" fill="white"/>
<path fill-rule="evenodd" clip-rule="evenodd" d="M135.948 53.9099C135.592 52.9404 135.589 51.8761 135.939 50.9047C136.289 49.9333 136.97 49.1172 137.861 48.6004C139.945 47.3936 144.615 46.4542 149.268 47.0262C147.437 51.3571 144.29 54.9469 142.207 56.154C141.318 56.6694 140.275 56.8533 139.264 56.6736C138.252 56.4938 137.336 55.9619 136.677 55.1713C135.196 56.2456 134.634 57.2055 134.588 60.6987C134.527 65.2583 134.844 68.4461 135.37 73.2413H132.127C132.654 68.4461 132.97 65.2583 132.91 60.6987C132.862 57.2058 132.302 56.2456 130.821 55.1713C130.161 55.9619 129.245 56.4939 128.233 56.6736C127.222 56.8534 126.179 56.6694 125.289 56.154C123.206 54.9469 120.06 51.3571 118.227 47.0259C122.881 46.4538 127.551 47.3933 129.633 48.6001C130.525 49.1168 131.206 49.9329 131.556 50.9044C131.906 51.8759 131.903 52.9404 131.547 53.9099C132.128 54.2308 132.686 54.7651 132.99 55.1561C132.969 53.2998 132.926 50.7861 132.861 48.7389C131.747 48.526 130.743 47.9299 130.02 47.0534C129.297 46.1769 128.901 45.0748 128.901 43.937C128.901 41.2444 130.601 36.1918 133.749 32C136.895 36.1918 138.595 41.2444 138.595 43.9366C138.595 45.0744 138.2 46.1765 137.477 47.0531C136.754 47.9296 135.749 48.5256 134.635 48.7385C134.57 50.7861 134.527 53.2994 134.506 55.1558C134.81 54.7648 135.368 54.2304 135.949 53.9095" fill="white"/>
</g>
<defs>
<clipPath id="clip0_404_4082">
<rect width="185" height="42" fill="white" transform="translate(36 32)"/>
</clipPath>
</defs>
</svg>
