<?xml version="1.0" encoding="utf-8"?>
<!-- Generator: Adobe Illustrator 26.0.1, SVG Export Plug-In . SVG Version: 6.00 Build 0)  -->
<svg version="1.1" id="Layer_1" xmlns="http://www.w3.org/2000/svg" xmlns:xlink="http://www.w3.org/1999/xlink" x="0px" y="0px"
	 viewBox="0 0 120 32" style="enable-background:new 0 0 120 32;" xml:space="preserve">
<style type="text/css">
	.st0{fill-rule:evenodd;clip-rule:evenodd;fill:#FFFFFF;}
	.st1{fill:#FFFFFF;}
</style>
<g>
	<path class="st0" d="M5.2,4.5c0.5,0.2,1,0.4,1.5,0.6C6,6.4,6,7.8,6.7,9.3c1,1.4,2.4,2,4.2,1.9c0-1.4-0.3-2.5-0.8-3.2
		C9.4,7.1,8.5,6.6,7.4,6.4c0.2-0.5,0.4-1.1,0.5-1.6C9,5,10,5.5,10.9,6.2C11.5,4,12.7,2,16.6,0.9c0,0.6,0,1.2,0,1.8
		c-1.6,0.4-2.9,1.2-3.7,3C12.1,7.4,12,9.3,12.6,11c0.3,0.8,0.7,1.5,1.3,2.2c1.9-2.3,2.8-4.9,0.6-8.2c0.5-0.3,1-0.7,1.4-1
		c0.4,0.8,0.7,1.6,1.1,2.5c0.8-1,1.8-1.6,3-1.6c0.2,0.6,0.3,1.2,0.5,1.7c-2.4-0.1-3.4,1.8-3.6,4.7c2.3-0.3,4-1,4.5-2.6
		c0.2-1.1,0.3-2.2-0.3-3.3c0.5-0.2,1.1-0.4,1.6-0.6c1.2,2.5,0.4,4.4-0.7,6.3c1.7,0,3-0.5,3.8-1.7c0.4,0.3,0.9,0.6,1.3,0.8
		c-0.5,0.7-1,1.3-1.7,1.7c-2.6,1.7-5,0.1-7.9,0.9c-0.8,0.2-1.6,0.6-2.3,1.3c-0.9,1-1.4,2-1.8,3c-0.8,2.2-0.4,3.1,0.3,5.1
		c0.5-1.2,0.9-2.5,0.5-4.3c0.3-0.7,0.7-1.5,1-2.2c0.5,1.1,0.7,2.2,0.8,3.3c0.1,2.3-0.7,4-1.9,5.8c-0.6,0.8-1.2,1.7-2,2.5
		c-0.8,0-1.6,0-2.4,0c0.9-1.1,2-2.3,3-3.3c-1.3-2.3-1.7-4.1-1.2-6.6c0.2-0.9,0.6-1.9,1.2-2.7c-0.7-1-1.6-1.7-3.1-2.1
		c-1.8-0.4-2.8,0-4.4,0c-2,0-3.7-0.7-5.1-2.6c0.5-0.3,0.9-0.6,1.4-0.9c1,1.4,2.4,2.1,4.2,1.9C4,8.9,4.2,6.7,5.2,4.5L5.2,4.5z
		 M0.6,30.4l0.4,0c0,0.1,0.1,0.2,0.1,0.3c0.1,0.1,0.2,0.1,0.3,0.1c0.1,0,0.2,0,0.3-0.1c0.1-0.1,0.1-0.1,0.1-0.2c0,0,0-0.1,0-0.1
		c0,0-0.1-0.1-0.1-0.1c0,0-0.1,0-0.3-0.1c-0.2-0.1-0.4-0.1-0.4-0.2c-0.1-0.1-0.2-0.2-0.2-0.4c0-0.1,0-0.2,0.1-0.3
		c0.1-0.1,0.1-0.2,0.2-0.2c0.1,0,0.2-0.1,0.4-0.1c0.2,0,0.4,0.1,0.5,0.2c0.1,0.1,0.2,0.3,0.2,0.4l-0.4,0c0-0.1-0.1-0.2-0.1-0.2
		c-0.1,0-0.1-0.1-0.2-0.1c-0.1,0-0.2,0-0.3,0.1c0,0-0.1,0.1-0.1,0.1c0,0,0,0.1,0.1,0.1c0,0,0.2,0.1,0.4,0.1c0.2,0,0.3,0.1,0.4,0.1
		C2,30,2,30.1,2.1,30.2c0.1,0.1,0.1,0.2,0.1,0.3c0,0.1,0,0.2-0.1,0.3C2,30.9,1.9,31,1.8,31c-0.1,0-0.3,0.1-0.4,0.1
		c-0.2,0-0.4-0.1-0.6-0.2C0.7,30.8,0.6,30.6,0.6,30.4L0.6,30.4z M4,31.1v-2h0.4v2H4L4,31.1z M6.3,31.1v-2h0.4l0.8,1.3v-1.3h0.4v2
		H7.5l-0.8-1.3v1.3H6.3L6.3,31.1z M11,30.3l0.4,0.1c-0.1,0.2-0.2,0.4-0.3,0.5c-0.1,0.1-0.3,0.2-0.5,0.2c-0.3,0-0.5-0.1-0.6-0.3
		c-0.2-0.2-0.2-0.4-0.2-0.7c0-0.3,0.1-0.6,0.3-0.8c0.2-0.2,0.4-0.3,0.7-0.3c0.2,0,0.4,0.1,0.6,0.2c0.1,0.1,0.2,0.2,0.2,0.4L11,29.7
		c0-0.1-0.1-0.2-0.1-0.2c-0.1-0.1-0.2-0.1-0.3-0.1c-0.1,0-0.3,0.1-0.4,0.2c-0.1,0.1-0.1,0.3-0.1,0.5c0,0.2,0,0.4,0.1,0.5
		c0.1,0.1,0.2,0.2,0.3,0.2c0.1,0,0.2,0,0.3-0.1C11,30.6,11,30.5,11,30.3L11,30.3z M13.3,31.1v-2h1.4v0.3h-1v0.4h1v0.3h-1v0.5h1.1
		v0.3H13.3L13.3,31.1z M18.6,30.7v0.3h-1.3c0-0.1,0.1-0.3,0.1-0.4c0.1-0.1,0.2-0.3,0.4-0.5c0.2-0.2,0.3-0.3,0.3-0.3
		c0.1-0.1,0.1-0.2,0.1-0.2c0-0.1,0-0.1-0.1-0.2c0,0-0.1-0.1-0.2-0.1c-0.1,0-0.1,0-0.2,0.1c0,0-0.1,0.1-0.1,0.2l-0.4,0
		c0-0.2,0.1-0.4,0.2-0.4c0.1-0.1,0.3-0.1,0.4-0.1c0.2,0,0.3,0.1,0.5,0.2c0.1,0.1,0.2,0.2,0.2,0.4c0,0.1,0,0.2,0,0.3
		c0,0.1-0.1,0.2-0.1,0.2c0,0.1-0.1,0.1-0.2,0.3c-0.1,0.1-0.2,0.2-0.2,0.2c0,0-0.1,0.1-0.1,0.1H18.6L18.6,30.7z M21,29.1
		c0.2,0,0.3,0.1,0.4,0.2c0.1,0.2,0.2,0.4,0.2,0.8c0,0.4-0.1,0.6-0.2,0.8c-0.1,0.1-0.3,0.2-0.4,0.2c-0.2,0-0.3-0.1-0.5-0.2
		c-0.1-0.1-0.2-0.4-0.2-0.8c0-0.4,0.1-0.6,0.2-0.8C20.6,29.2,20.8,29.1,21,29.1L21,29.1z M21,29.4c0,0-0.1,0-0.1,0
		c0,0-0.1,0.1-0.1,0.2c0,0.1,0,0.3,0,0.5c0,0.2,0,0.4,0,0.5c0,0.1,0.1,0.1,0.1,0.2c0,0,0.1,0,0.1,0c0,0,0.1,0,0.1,0
		c0,0,0.1-0.1,0.1-0.2c0-0.1,0-0.3,0-0.5c0-0.2,0-0.4,0-0.5c0-0.1-0.1-0.1-0.1-0.2C21.1,29.4,21,29.4,21,29.4L21,29.4z M24,29.1
		c0.2,0,0.3,0.1,0.4,0.2c0.1,0.2,0.2,0.4,0.2,0.8c0,0.4-0.1,0.6-0.2,0.8c-0.1,0.1-0.3,0.2-0.4,0.2c-0.2,0-0.3-0.1-0.5-0.2
		c-0.1-0.1-0.2-0.4-0.2-0.8c0-0.4,0.1-0.6,0.2-0.8C23.7,29.2,23.8,29.1,24,29.1L24,29.1z M24,29.4c0,0-0.1,0-0.1,0
		c0,0-0.1,0.1-0.1,0.2c0,0.1,0,0.3,0,0.5c0,0.2,0,0.4,0,0.5c0,0.1,0.1,0.1,0.1,0.2c0,0,0.1,0,0.1,0c0,0,0.1,0,0.1,0
		c0,0,0.1-0.1,0.1-0.2c0-0.1,0-0.3,0-0.5c0-0.2,0-0.4,0-0.5s-0.1-0.1-0.1-0.2C24.1,29.4,24.1,29.4,24,29.4L24,29.4z M27.4,31.1H27
		v-1.4c-0.1,0.1-0.3,0.2-0.5,0.3v-0.3c0.1,0,0.2-0.1,0.3-0.2c0.1-0.1,0.2-0.2,0.2-0.3h0.3V31.1L27.4,31.1z M14,6.3
		c-1,1.5-1.4,3.6,0,5.1C15.3,10,15,7.8,14,6.3L14,6.3z M7.3,7.3c0,0.8,0.3,1.4,0.6,1.9c0.4,0.7,1.1,1.1,2,1.2c0.1-0.7-0.2-1.4-0.6-2
		C8.6,7.7,8,7.4,7.3,7.3L7.3,7.3z M20.8,7.3c0,0.8-0.3,1.4-0.6,1.9c-0.4,0.7-1.1,1.1-2,1.2c-0.1-0.7,0.2-1.4,0.6-2
		C19.5,7.7,20.1,7.4,20.8,7.3L20.8,7.3z M25.6,6.3c0.2,1,0.1,1.7-0.2,2.4c-0.4,0.7-0.9,1-1.4,1.2c-0.2-0.4-0.3-0.9-0.1-1.7
		C24.3,7.3,24.9,6.7,25.6,6.3L25.6,6.3z M2.4,6.3C2.1,7.3,2.3,8,2.6,8.7c0.4,0.7,0.9,1,1.4,1.2C4.1,9.5,4.2,9,4,8.2
		C3.7,7.3,3.1,6.7,2.4,6.3L2.4,6.3z M28,17.3c-0.6,0.1-1.8,0.5-2.3,1.2c-1,1.2,0.2,2.1,1.2,1.1C27.5,19,27.8,18,28,17.3L28,17.3z
		 M0,17.3c0.6,0.1,1.8,0.5,2.3,1.2c1,1.2-0.2,2.1-1.2,1.1C0.4,19,0.2,18,0,17.3L0,17.3z M21.5,21.1c-0.7,0.2-2.1,0.5-2.9,0.2
		c-1.6-0.6-1.1-2.2,0.6-1.8C20.1,19.7,21,20.5,21.5,21.1L21.5,21.1z M6.4,21.1c0.7,0.2,2.1,0.5,2.9,0.2c1.6-0.6,1.1-2.2-0.6-1.8
		C7.8,19.7,6.9,20.5,6.4,21.1L6.4,21.1z M24.5,13.4c-0.6,0.2-1.7,0.8-2.1,1.5c-0.8,1.3,0.5,2.1,1.4,0.9
		C24.3,15.1,24.5,14.1,24.5,13.4L24.5,13.4z M3.4,13.4c0.6,0.2,1.7,0.8,2.1,1.5C6.3,16.2,5,17,4.1,15.8C3.6,15.1,3.5,14.1,3.4,13.4
		L3.4,13.4z M8.5,13.5c0.6,0,1.8,0.1,2.5,0.6c1.2,0.9,0.3,2.1-1,1.4C9.3,15.1,8.8,14.1,8.5,13.5L8.5,13.5z M19.4,13.5
		c-0.6,0-1.8,0.1-2.5,0.6c-1.2,0.9-0.3,2.1,1,1.4C18.6,15.1,19.1,14.1,19.4,13.5L19.4,13.5z M18.5,1.6C18,2,17.2,3,17,3.8
		c-0.3,1.6,1.3,1.8,1.7,0.4C19,3.3,18.7,2.2,18.5,1.6L18.5,1.6z M11.6,1.4C11,1.6,9.8,2.2,9.3,2.9c-0.9,1.3,0.4,2.2,1.4,1
		C11.3,3.2,11.5,2.1,11.6,1.4L11.6,1.4z M15.7,24.9l2.3,2.4h-2.3l-0.9-1L15.7,24.9L15.7,24.9z M17,16.8c2-0.4,2.9-1.6,3.1-3.3
		c0.6,0,1.2,0,1.7,0c0.1,1.1-0.3,2.3-1.3,3.4c1,0.3,2,0.3,2.7,0.1c1.1-0.3,2.1-1.5,2.3-2.7c0.1-0.5,0.1-1-0.1-1.5c0,0,0.1,0,0.1,0
		c0.5-0.4,1-0.7,1.5-1.1c0.1,0.8,0.1,1.7,0,2.4c-0.3,2.1-1.4,4-3.6,4.5c0.4,0.6,0.8,1.1,1.2,1.7c-0.5,0.2-1.1,0.4-1.6,0.5
		c-1.5-2.2-3.5-3.1-6-2.4C17,17.9,17,17.3,17,16.8L17,16.8z M10.8,16.8c-2-0.4-2.9-1.6-3.1-3.3c-0.6,0-1.2,0-1.7,0
		C5.9,14.8,6.4,16,7.3,17c-1,0.3-2,0.3-2.7,0.1c-1.1-0.3-2.1-1.5-2.3-2.7c-0.1-0.5-0.1-1,0.1-1.5c0,0-0.1,0-0.1,0
		c-0.5-0.4-1-0.7-1.5-1.1c-0.1,0.8-0.1,1.7,0,2.4c0.3,2.1,1.4,4,3.6,4.5c-0.4,0.6-0.8,1.1-1.2,1.7c0.5,0.2,1.1,0.4,1.6,0.5
		c1.5-2.2,3.5-3.1,6-2.4C10.7,17.9,10.8,17.3,10.8,16.8L10.8,16.8z"/>
	<path class="st1" d="M48.5,18.8c0,0.7-0.2,1.3-0.7,1.7c-0.4,0.3-0.7,0.5-1,0.6c-0.4,0.1-0.7,0.2-0.7,0.2l0,0h-0.7
		c-0.8,0-1.4-0.3-1.9-1c-0.5-0.7-1-1.4-1.3-2.1L42,18.2c-0.1-0.1-0.2-0.3-0.3-0.6l-0.1-0.1c0,0,0-0.1-0.1-0.1c0,0,0-0.1-0.1-0.2
		l-2.9,1.2h-0.1v0.2c0.8,0,1.5,0.1,1.9,0.3c0.4,0.2,0.7,0.4,0.8,0.6c0.1,0.3,0.2,0.5,0.2,0.7v0.1c0,0,0,0,0,0v0.1v0.1v0
		c0,0.7-0.2,1.2-0.7,1.6c-0.7,0.5-1.6,0.8-2.8,0.9c-0.1,0-0.3,0.1-0.4,0.1l-2,0v-0.3c0.4-0.2,0.8-0.3,1.4-0.5l0.4-0.1
		c0.5-0.1,0.8-0.3,1.1-0.5c0.3-0.2,0.4-0.6,0.4-1.2c0-0.6-0.2-1-0.5-1.2c-0.3-0.2-0.7-0.3-1-0.4h-0.1c0,0-0.1,0-0.1,0H37
		c0,0-0.1,0-0.1,0h-0.2l-0.1,0h-0.1c0,0-0.1,0-0.2,0c-0.1,0-0.1,0-0.2-0.1v-0.3c0.6-0.1,1.5-0.4,2.7-0.8c0.6-0.2,1.3-0.6,2-1.1
		c0.2-0.1,0.3-0.2,0.5-0.3c-0.2-0.3-0.5-1-0.8-2c-0.2-0.5-0.4-1.1-0.8-1.9c-0.2-0.4-0.4-0.7-0.8-0.8c0,0-0.1,0-0.1,0.1
		c-0.4,0.3-0.6,0.7-0.6,1c0,0.1,0,0.2,0.1,0.3c0.1,0,0.2,0.1,0.3,0.1l0.1,0l0.1,0c0.1,0,0.3,0.1,0.4,0.2c0.1,0.1,0.2,0.3,0.2,0.6
		c0,0.4-0.1,0.7-0.3,0.8c-0.2,0.1-0.4,0.2-0.7,0.2h-0.7c-0.5,0-0.8-0.1-0.9-0.3c-0.1-0.2-0.2-0.5-0.2-0.7c0,0,0,0,0-0.1v-0.1v0v0
		c0,0,0-0.2,0-0.5c0.1-0.4,0.3-0.8,0.5-1.1c0.5-0.6,1.2-1,2.1-1h0.6c1,0,1.6,0.2,2,0.7c0.4,0.5,0.8,1.1,1,1.8l0.1,0.4
		c0.1,0.2,0.2,0.5,0.3,0.8c0,0,0,0,0,0.1c0,0,0,0,0,0c0,0,0,0,0,0c0,0,0,0,0.1,0.1c0,0,0.1-0.1,0.1-0.1c0.2-0.1,0.3-0.2,0.4-0.4
		c0,0,0.1-0.1,0.2-0.2c0.2-0.2,0.3-0.4,0.4-0.5c0,0,0-0.1,0.1-0.1l0.1-0.1c0.1-0.1,0.2-0.3,0.4-0.6c0,0-0.1,0-0.1-0.1c0,0,0,0-0.1,0
		c0,0,0,0-0.1,0c-0.3-0.2-0.4-0.4-0.4-0.8c0-0.3,0.1-0.5,0.3-0.7c0.2-0.2,0.4-0.3,0.7-0.3h0.7c0,0,0,0,0,0h0c0,0,0,0,0,0
		c0,0,0,0,0.1,0c0,0,0,0,0.1,0c0.6,0.2,0.9,0.5,0.9,1c0,0.5-0.2,1-0.5,1.4c-0.6,0.7-1.4,1.3-2.4,1.8c-0.4,0.2-0.5,0.4-0.5,0.5
		l0.2,0.5c0.1,0.2,0.3,0.6,0.6,1.1l0,0.1c0,0,0,0,0,0.1c0,0,0,0,0,0.1l0.1,0.1c0,0,0,0.1,0.1,0.1c0,0,0.1,0.1,0.1,0.2
		c0,0.1,0.1,0.2,0.2,0.4c0.2,0.5,0.5,1,0.9,1.5c0.2,0.2,0.3,0.4,0.5,0.5c0.1,0.1,0.1,0.1,0.2,0.1c0.3-0.2,0.5-0.4,0.5-0.8v-0.1
		c0-0.3-0.1-0.5-0.2-0.6c-0.2-0.1-0.3-0.1-0.5-0.2h0c-0.2,0-0.4-0.1-0.6-0.2c-0.2-0.1-0.3-0.3-0.3-0.7c0-0.3,0.1-0.5,0.3-0.7
		c0.2-0.1,0.4-0.2,0.6-0.2l0.1,0h0.7c0.5,0,0.8,0.1,1,0.4c0.2,0.4,0.4,0.7,0.4,0.9V18.8L48.5,18.8z M60.4,19.5
		c0,0.4-0.1,0.9-0.3,1.5c-0.1,0.3-0.3,0.7-0.5,1c-0.3,0.5-0.7,0.9-1.1,1.3l-0.3,0h-0.6v-0.4l0,0c0,0,0-0.1,0-0.1c0,0,0-0.2,0.1-0.5
		v0c0-0.2,0.1-0.3,0.1-0.4c0-0.1,0-0.2,0-0.2v-8.9c0,0,0,0,0-0.1v0c0,0,0-0.1-0.1-0.2c-0.1-0.4-0.4-0.6-0.7-0.7
		c-0.2,0.1-0.4,0.2-0.6,0.5c-0.2,0.2-0.3,0.5-0.3,0.7v4.6h-2.3v-4.6c0-0.3-0.1-0.5-0.4-0.8c-0.2-0.2-0.3-0.3-0.5-0.3
		c-0.1,0-0.2,0.1-0.4,0.3c0,0.1-0.1,0.1-0.1,0.2c0,0-0.1,0.1-0.1,0.3c0,0.1,0,0.1,0,0.2v8.5h-0.5c0,0,0.1,0,0.1-0.1H52h0H52
		c0,0,0,0,0,0h0.1h0.1h0.6h0h0c0.5,0,0.7,0.3,0.7,0.8c0,0.4-0.2,0.7-0.6,1c-0.1,0.1-0.2,0.1-0.3,0.1c-0.1,0-0.2,0-0.2,0h-0.6
		c-0.5,0-0.8-0.2-1.2-0.7c-0.5-0.7-0.8-1.6-1-2.6c0-0.3-0.1-0.6-0.1-0.8v-4.5c0-0.8,0.2-1.5,0.7-2.1c0.5-0.6,1.1-1,1.9-1.2h0.1
		c0,0,0,0,0.1,0h0.7c0.6,0,1,0.1,1.2,0.3c0.3,0.2,0.5,0.4,0.7,0.7c0,0,0,0.1,0.1,0.1c0.2-0.2,0.3-0.4,0.5-0.6
		c0.2-0.2,0.4-0.3,0.6-0.4c0.2-0.1,0.4-0.1,0.8-0.1h0.6c0.2,0,0.5,0,0.8,0.1c0.6,0.2,1.1,0.6,1.5,1.2c0.4,0.5,0.6,1.1,0.6,1.9V19.5
		L60.4,19.5z M72.6,20c0,0.8-0.2,1.5-0.7,2.2c-0.4,0.6-1,1-1.6,1.1l-0.6,0v-0.4c0-0.1,0-0.2,0-0.3c0-0.1,0.1-0.3,0.1-0.4v0l0,0
		c0-0.1,0-0.3,0.1-0.5c0-0.2,0-0.3,0-0.3v-2.8c0-0.3-0.1-0.6-0.3-0.7c-0.2-0.1-0.4-0.3-0.6-0.4c0,0,0,0,0,0c0,0,0,0,0,0
		c-0.4,0.1-0.7,0.5-0.9,1.1c0,0.2,0,0.3,0,0.3v2.4h-2.2v-2.5c0,0,0-0.1-0.1-0.2c0-0.2-0.1-0.4-0.4-0.7c-0.1-0.1-0.2-0.2-0.2-0.2
		c-0.1-0.1-0.2-0.2-0.4-0.2c0,0-0.1,0-0.2,0.1c-0.3,0.1-0.5,0.3-0.6,0.5c0,0.1,0,0.2,0,0.3v3.1c0.3,0,0.6,0.1,0.8,0.2
		c0.2,0.1,0.4,0.3,0.4,0.7l0,0.1v0.1c0,0.2-0.2,0.4-0.4,0.6c-0.2,0.1-0.5,0.2-0.9,0.2l-0.6,0c-0.3,0-0.6-0.1-0.9-0.4
		c-0.2-0.3-0.4-0.6-0.6-0.9c0-0.1,0-0.1-0.1-0.2c0-0.1,0-0.1-0.1-0.2c0-0.2,0-0.4,0-0.4v-2.1c0-0.6,0.2-1.3,0.5-2.1
		c0.3-0.9,0.8-1.6,1.3-2c0.7-0.5,1.5-1.1,2.5-1.5c0.8-0.4,1.4-0.7,1.8-1.1c0.3-0.3,0.6-0.6,0.8-1.1H69h0h0l0,0l0.1,0
		c0.1,0.2,0.2,0.5,0.2,0.9c0,0.8-0.3,1.4-0.9,1.8c-0.4,0.3-1.2,0.7-2.3,1.3l-0.1,0c0,0,0,0,0,0l-0.1,0c-0.4,0.2-1.1,0.6-2,1.1
		c-0.5,0.3-0.8,0.7-1.1,1.1l0.1-0.1c0,0,0.1-0.1,0.2-0.1s0.2-0.1,0.3-0.2c0.3-0.1,0.6-0.2,1-0.2h0.6c0.4,0,0.7,0,1,0.1
		c0.3,0.1,0.6,0.2,0.8,0.4c0,0,0.1,0,0.1,0.1l0.1,0.1l0.1-0.1c0.1-0.1,0.3-0.2,0.5-0.3c0.2-0.1,0.5-0.2,0.9-0.2c0.2,0,0.4,0,0.6,0
		h0.6c1,0,1.8,0.3,2.2,0.9C72.4,18.5,72.6,19.2,72.6,20L72.6,20z M86.8,18.8c0,0.7-0.2,1.3-0.7,1.7c-0.4,0.3-0.7,0.5-1,0.6
		c-0.4,0.1-0.7,0.2-0.7,0.2l0,0h-0.7c-0.8,0-1.4-0.3-1.9-1c-0.5-0.7-1-1.4-1.3-2.1l-0.1-0.1c-0.1-0.1-0.2-0.3-0.3-0.6L80,17.5
		c0,0,0-0.1-0.1-0.1c0,0,0-0.1-0.1-0.2l-2.9,1.2h-0.1v0.2c0.8,0,1.5,0.1,1.9,0.3c0.4,0.2,0.7,0.4,0.8,0.6c0.1,0.3,0.2,0.5,0.2,0.7
		v0.1c0,0,0,0,0,0v0.1v0.1v0c0,0.7-0.2,1.2-0.7,1.6c-0.7,0.5-1.6,0.8-2.8,0.9c-0.1,0-0.3,0.1-0.4,0.1l-2,0v-0.3
		c0.4-0.2,0.8-0.3,1.4-0.5l0.4-0.1c0.5-0.1,0.8-0.3,1.1-0.5c0.3-0.2,0.4-0.6,0.4-1.2c0-0.6-0.2-1-0.5-1.2c-0.3-0.2-0.7-0.3-1-0.4
		h-0.1c0,0-0.1,0-0.1,0h-0.2c0,0-0.1,0-0.1,0H75l-0.1,0h-0.1c0,0-0.1,0-0.2,0c-0.1,0-0.1,0-0.2-0.1v-0.3c0.6-0.1,1.5-0.4,2.7-0.8
		c0.6-0.2,1.3-0.6,2-1.1c0.2-0.1,0.3-0.2,0.5-0.3c-0.2-0.3-0.5-1-0.8-2c-0.2-0.5-0.4-1.1-0.8-1.9c-0.2-0.4-0.4-0.7-0.8-0.8
		c0,0-0.1,0-0.1,0.1c-0.4,0.3-0.6,0.7-0.6,1c0,0.1,0,0.2,0.1,0.3c0.1,0,0.2,0.1,0.3,0.1l0.1,0l0.1,0c0.1,0,0.3,0.1,0.4,0.2
		c0.1,0.1,0.2,0.3,0.2,0.6c0,0.4-0.1,0.7-0.3,0.8s-0.4,0.2-0.7,0.2h-0.7c-0.5,0-0.8-0.1-0.9-0.3c-0.1-0.2-0.2-0.5-0.2-0.7
		c0,0,0,0,0-0.1v-0.1v0v0c0,0,0-0.2,0-0.5c0.1-0.4,0.3-0.8,0.5-1.1c0.5-0.6,1.2-1,2.1-1h0.6c1,0,1.6,0.2,2,0.7
		c0.4,0.5,0.8,1.1,1,1.8l0.1,0.4c0.1,0.2,0.2,0.5,0.3,0.8c0,0,0,0,0,0.1c0,0,0,0,0,0c0,0,0,0,0,0c0,0,0,0,0.1,0.1
		c0,0,0.1-0.1,0.1-0.1c0.2-0.1,0.3-0.2,0.4-0.4c0,0,0.1-0.1,0.2-0.2c0.2-0.2,0.3-0.4,0.4-0.5c0,0,0-0.1,0.1-0.1l0.1-0.1
		c0.1-0.1,0.2-0.3,0.4-0.6c0,0-0.1,0-0.1-0.1c0,0,0,0-0.1,0c0,0,0,0-0.1,0c-0.3-0.2-0.4-0.4-0.4-0.8c0-0.3,0.1-0.5,0.3-0.7
		c0.2-0.2,0.4-0.3,0.7-0.3h0.7c0,0,0,0,0,0h0c0,0,0,0,0,0c0,0,0,0,0.1,0c0,0,0,0,0.1,0c0.6,0.2,0.9,0.5,0.9,1c0,0.5-0.2,1-0.5,1.4
		c-0.6,0.7-1.4,1.3-2.4,1.8c-0.4,0.2-0.5,0.4-0.5,0.5l0.2,0.5c0.1,0.2,0.3,0.6,0.6,1.1l0,0.1c0,0,0,0,0,0.1c0,0,0,0,0,0.1l0.1,0.1
		c0,0,0,0.1,0.1,0.1c0,0,0.1,0.1,0.1,0.2c0,0.1,0.1,0.2,0.2,0.4c0.2,0.5,0.5,1,0.9,1.5c0.2,0.2,0.3,0.4,0.5,0.5
		c0.1,0.1,0.1,0.1,0.2,0.1c0.3-0.2,0.5-0.4,0.5-0.8v-0.1c0-0.3-0.1-0.5-0.2-0.6c-0.2-0.1-0.3-0.1-0.5-0.2h0c-0.2,0-0.4-0.1-0.6-0.2
		c-0.2-0.1-0.3-0.3-0.3-0.7c0-0.3,0.1-0.5,0.3-0.7c0.2-0.1,0.4-0.2,0.6-0.2l0.1,0h0.7c0.5,0,0.8,0.1,1,0.4c0.2,0.4,0.4,0.7,0.4,0.9
		V18.8L86.8,18.8z M95.4,19.2c0,0.2,0,0.5-0.1,0.8c-0.2,0.9-0.5,1.7-1,2.4c-0.3,0.4-0.6,0.7-1.1,0.8l-0.6,0v-0.6c0,0,0-0.1,0-0.1
		c0-0.1,0.1-0.3,0.2-0.6c0-0.1,0-0.1,0-0.2c0-0.1,0-0.2,0-0.3v-8c0-0.4-0.1-0.8-0.4-1.1c-0.2-0.3-0.5-0.4-0.7-0.5
		c-0.3,0.1-0.6,0.3-0.8,0.5c-0.2,0.3-0.4,0.6-0.4,0.9V21c0.1,0,0.1,0,0.2,0h0.6c0.5,0,0.8,0.4,0.8,1.1c0,0.3-0.1,0.6-0.4,0.8
		c-0.2,0.2-0.5,0.3-0.9,0.3l-0.6,0c-0.6,0-1-0.2-1.3-0.6c-0.4-0.6-0.7-1.3-0.8-2.1c0-0.3,0-0.5,0-0.7v-4.6c0-1.1,0.3-2,1-2.8
		c0.7-0.8,1.5-1.2,2.4-1.2h0.6c0.8,0,1.5,0.3,2,0.9c0.8,0.8,1.2,1.7,1.3,2.8c0,0.1,0,0.2,0,0.3V19.2L95.4,19.2z M109,18.5
		c0,1.8-0.6,3-1.8,3.6c-1.1,0.6-2.5,1-4.1,1l-0.6,0c-0.9,0-1.8-0.1-2.7-0.3c-1.2-0.3-2.1-1.1-2.7-2.2c-0.4-0.7-0.5-1.4-0.5-2.1v-0.2
		c0-1.1,0.2-1.9,0.5-2.4c0.3-0.4,0.8-0.9,1.6-1.4c0.1-0.1,0.2-0.1,0.4-0.2h1v0.4c0,0,0,0,0,0c0,0,0,0,0,0l0,0c0,0,0,0,0,0
		c-0.1,0.1-0.1,0.1-0.1,0.2c-0.2,0.3-0.3,0.7-0.4,1.2c-0.1,0.5-0.2,1.2-0.2,2.2c0,1.8,0.3,3,1,3.6c0.3,0.3,0.7,0.5,1.1,0.6
		c0.5,0.2,1,0.3,1.6,0.3c1.2,0,2.1-0.3,2.6-0.9c0.7-0.7,1-1.7,1.1-2.7c0,0,0-0.1,0-0.2c0-0.1,0-0.1,0-0.2v-0.5
		c0-0.7-0.1-1.4-0.3-2.1c-0.2-0.6-0.6-1-1.1-1.3c0.1,0.1,0.3,0.2,0.4,0.3l0.2,0.2c0.2,0.2,0.3,0.4,0.3,0.6c0,0.1,0,0.3,0,0.7
		c0,0.7-0.3,1.3-0.8,1.6c-0.5,0.3-1.1,0.5-1.8,0.5h-0.6c-0.8,0-1.4-0.2-1.9-0.5c-0.4-0.4-0.7-0.9-0.7-1.6c0-0.6,0.1-1,0.4-1.2
		c0.1-0.1,0.5-0.3,1-0.6l0.1,0c0,0,0.1,0,0.2-0.1l0.1-0.1c0.1,0,0.2-0.1,0.3-0.1c-0.6-0.2-1-0.4-1.3-0.6c-0.3-0.2-0.4-0.6-0.4-1
		c0-0.5,0.2-0.9,0.5-1.1c0.3-0.2,0.8-0.4,1.4-0.5h0.1c0,0,0.1,0,0.1,0h0.9c0,0,0,0,0.1,0h0.1c0.2,0,0.5,0.1,0.9,0.2
		c0.4,0.2,0.7,0.5,0.9,0.8c0.1,0.2,0.1,0.4,0.1,0.6c0,0.5-0.1,0.9-0.4,1.1c-0.3,0.2-0.7,0.4-1.1,0.5l-0.1,0l0,0
		c0.3,0.1,0.5,0.1,0.6,0.1h0.1c0,0,0,0,0,0h0.1c0,0,0.1,0,0.1,0c0.6,0,1.1,0.1,1.4,0.2c0.3,0.1,0.7,0.3,1.2,0.5
		c0.6,0.4,1,0.8,1.3,1.4c0.2,0.4,0.3,0.8,0.4,1.2C108.9,18.3,109,18.5,109,18.5L109,18.5z M103.5,16.5v-0.4c0-0.3,0-0.5-0.1-0.7
		c-0.1-0.1-0.1-0.2-0.1-0.3c-0.1-0.1-0.2-0.2-0.2-0.2c-0.2,0.1-0.4,0.2-0.4,0.4c-0.1,0.3-0.1,0.7-0.1,1.2V17c0,0.1,0,0.3,0.1,0.5
		c0,0.1,0.1,0.2,0.1,0.3c0.1,0.1,0.2,0.2,0.3,0.3c0.3-0.1,0.4-0.4,0.5-0.9C103.5,17,103.5,16.8,103.5,16.5L103.5,16.5z M103.5,12.8
		c0-0.7-0.2-1.1-0.5-1.3c-0.1,0-0.2,0.2-0.3,0.4c-0.1,0.2-0.2,0.5-0.2,0.9v0.1c0,0,0,0.1,0,0.2c0,0.2,0,0.4,0.1,0.6
		c0,0.1,0.1,0.2,0.1,0.3c0,0.1,0.1,0.1,0.2,0.1c0.1,0,0.2-0.2,0.4-0.4C103.4,13.5,103.5,13.2,103.5,12.8L103.5,12.8z M118.1,19.4
		c0,1-0.4,1.9-1.1,2.7c-0.7,0.7-1.6,1.1-2.7,1.1l-0.6,0c0,0-0.1,0-0.1,0h-0.1c0,0-0.1,0-0.1,0h-0.1c-0.1,0-0.1,0-0.2,0
		c0,0-0.1,0-0.2,0c-0.5-0.1-1-0.3-1.4-0.6c-0.5-0.3-0.8-0.7-1-1.2c-0.1-0.3-0.2-0.7-0.2-1.1c0-0.6,0.1-1,0.4-1.2
		c0.2-0.2,0.5-0.4,0.9-0.4h0.6c0.3,0,0.6,0.1,0.8,0.3c0.2,0.2,0.3,0.5,0.3,0.8c0,0.2,0,0.4-0.1,0.5l-0.1,0.2l-0.1,0.1c0,0,0,0,0,0
		c0,0,0,0,0,0c0,0,0,0,0,0l-0.1,0.1c0,0,0,0-0.1,0.1c0,0.1,0,0.1,0,0.1c0,0.4,0.1,0.8,0.4,1.1c0.4,0.4,0.7,0.7,1.1,0.7
		c0,0,0,0,0.1,0c0,0,0.1,0,0.1,0c0,0,0,0,0,0c0.1,0,0.3-0.1,0.5-0.2c0.3-0.1,0.6-0.4,0.8-0.8c0.3-0.4,0.4-0.9,0.4-1.5
		c0-0.5-0.1-1-0.4-1.5c-0.1-0.3-0.4-0.8-0.8-1.3c-0.4-0.5-0.7-1-1.1-1.5c-0.4-0.6-0.8-1.1-1-1.5c-0.2-0.4-0.4-0.9-0.4-1.4
		c0-0.9,0.3-1.6,0.9-2h0.9c0,0,0,0.1,0,0.1l0,0.1c0,0,0,0,0,0.1l0,0.1l0,0.1c0,0,0,0.1-0.1,0.2c0,0,0,0.1,0,0.1V12
		c0,0.4,0.2,0.9,0.6,1.4l0.7,0.8c0.3,0.4,0.8,1,1.5,1.8c0.6,0.9,1,1.6,1.2,2.2C118.1,18.5,118.1,18.9,118.1,19.4L118.1,19.4z"/>
</g>
</svg>
